<svg width="261" height="165" viewBox="0 0 261 165" fill="none" xmlns="http://www.w3.org/2000/svg">
<g filter="url(#filter0_d_822_5)">
<path d="M33.8314 114L17.2234 51.6H31.3354L42.8554 98.832H43.0474L55.8154 51.6H66.4714L79.6234 98.544H79.9114L90.7594 51.6H99.2074L82.8874 114H71.5594L58.5034 67.92H58.3114L45.3514 114H33.8314ZM96.2771 114L117.013 51.6H131.701L151.093 114H137.077L131.701 96.528H110.005L104.341 114H96.2771ZM111.925 90.48H129.877L121.333 61.104H121.141L111.925 90.48ZM165.861 114V89.904L146.469 51.6H161.349L175.077 79.92H175.269L188.709 51.6H197.925L179.205 88.464V114H165.861ZM219.279 115.056C215.055 115.056 211.535 114.512 208.719 113.424C205.903 112.272 203.791 111.056 202.383 109.776C201.039 108.496 200.367 107.728 200.367 107.472L204.015 101.904C204.015 102.032 204.623 102.64 205.839 103.728C207.119 104.752 208.815 105.712 210.927 106.608C213.103 107.504 215.599 107.952 218.415 107.952C221.423 107.952 223.759 107.152 225.423 105.552C227.087 103.952 227.919 101.84 227.919 99.216C227.919 97.552 227.471 96.112 226.575 94.896C225.679 93.616 224.559 92.56 223.215 91.728C221.935 90.832 220.111 89.712 217.743 88.368C214.671 86.768 212.143 85.232 210.159 83.76C208.175 82.288 206.479 80.368 205.071 78C203.663 75.632 202.959 72.72 202.959 69.264C202.959 65.488 203.823 62.192 205.551 59.376C207.279 56.56 209.679 54.416 212.751 52.944C215.823 51.408 219.311 50.64 223.215 50.64C225.775 50.64 228.175 50.96 230.415 51.6C232.719 52.24 234.639 52.976 236.175 53.808C237.775 54.576 238.575 54.992 238.575 55.056L237.039 61.584C236.719 61.392 235.919 60.976 234.639 60.336C233.423 59.632 231.855 58.96 229.935 58.32C228.015 57.68 226.063 57.36 224.079 57.36C221.647 57.36 219.695 58.064 218.223 59.472C216.751 60.816 216.015 62.704 216.015 65.136C216.015 67.824 216.879 69.968 218.607 71.568C220.335 73.168 222.991 74.928 226.575 76.848C229.775 78.576 232.335 80.144 234.255 81.552C236.175 82.96 237.807 84.88 239.151 87.312C240.559 89.68 241.263 92.656 241.263 96.24C241.263 100.144 240.271 103.504 238.287 106.32C236.367 109.136 233.743 111.312 230.415 112.848C227.087 114.32 223.375 115.056 219.279 115.056Z" fill="#F9F9FD"/>
</g>
<defs>
<filter id="filter0_d_822_5" x="13.2234" y="50.64" width="232.039" height="72.416" filterUnits="userSpaceOnUse" color-interpolation-filters="sRGB">
<feFlood flood-opacity="0" result="BackgroundImageFix"/>
<feColorMatrix in="SourceAlpha" type="matrix" values="0 0 0 0 0 0 0 0 0 0 0 0 0 0 0 0 0 0 127 0" result="hardAlpha"/>
<feOffset dy="4"/>
<feGaussianBlur stdDeviation="2"/>
<feComposite in2="hardAlpha" operator="out"/>
<feColorMatrix type="matrix" values="0 0 0 0 0 0 0 0 0 0 0 0 0 0 0 0 0 0 0.25 0"/>
<feBlend mode="normal" in2="BackgroundImageFix" result="effect1_dropShadow_822_5"/>
<feBlend mode="normal" in="SourceGraphic" in2="effect1_dropShadow_822_5" result="shape"/>
</filter>
</defs>
</svg>
